G04 #@! TF.GenerationSoftware,KiCad,Pcbnew,8.0.8*
G04 #@! TF.CreationDate,2025-01-29T14:53:02+01:00*
G04 #@! TF.ProjectId,TS4231-BOB,54533432-3331-42d4-924f-422e6b696361,rev?*
G04 #@! TF.SameCoordinates,Original*
G04 #@! TF.FileFunction,Copper,L2,Bot*
G04 #@! TF.FilePolarity,Positive*
%FSLAX46Y46*%
G04 Gerber Fmt 4.6, Leading zero omitted, Abs format (unit mm)*
G04 Created by KiCad (PCBNEW 8.0.8) date 2025-01-29 14:53:02*
%MOMM*%
%LPD*%
G01*
G04 APERTURE LIST*
G04 #@! TA.AperFunction,ComponentPad*
%ADD10R,1.700000X1.700000*%
G04 #@! TD*
G04 #@! TA.AperFunction,ComponentPad*
%ADD11O,1.700000X1.700000*%
G04 #@! TD*
G04 #@! TA.AperFunction,ViaPad*
%ADD12C,0.800000*%
G04 #@! TD*
G04 APERTURE END LIST*
D10*
X129200000Y-54900000D03*
D11*
X131740000Y-54900000D03*
X134280000Y-54900000D03*
X136820000Y-54900000D03*
D12*
X128400000Y-47500000D03*
X130600000Y-52900000D03*
X135800000Y-52400000D03*
X131400000Y-46300000D03*
X137800000Y-47700000D03*
X134000000Y-45200000D03*
X136199989Y-49600011D03*
X132800000Y-47500000D03*
X129833069Y-50750919D03*
X138000000Y-51300000D03*
G04 #@! TA.AperFunction,Conductor*
G36*
X137504487Y-44025821D02*
G01*
X137556328Y-44029528D01*
X137700859Y-44039865D01*
X137718647Y-44042423D01*
X137906607Y-44083312D01*
X137923850Y-44088374D01*
X138104090Y-44155600D01*
X138120439Y-44163067D01*
X138289267Y-44255254D01*
X138304391Y-44264974D01*
X138458380Y-44380248D01*
X138471966Y-44392021D01*
X138607978Y-44528033D01*
X138619751Y-44541619D01*
X138735025Y-44695608D01*
X138744745Y-44710732D01*
X138836932Y-44879560D01*
X138844400Y-44895912D01*
X138911624Y-45076146D01*
X138916688Y-45093395D01*
X138957575Y-45281347D01*
X138960134Y-45299142D01*
X138974179Y-45495511D01*
X138974500Y-45504500D01*
X138974500Y-55395499D01*
X138974179Y-55404488D01*
X138960134Y-55600857D01*
X138957575Y-55618652D01*
X138916688Y-55806604D01*
X138911624Y-55823853D01*
X138844400Y-56004087D01*
X138836932Y-56020439D01*
X138744745Y-56189267D01*
X138735025Y-56204391D01*
X138619751Y-56358380D01*
X138607978Y-56371966D01*
X138471966Y-56507978D01*
X138458380Y-56519751D01*
X138304391Y-56635025D01*
X138289267Y-56644745D01*
X138120439Y-56736932D01*
X138104087Y-56744400D01*
X137923853Y-56811624D01*
X137906604Y-56816688D01*
X137718652Y-56857575D01*
X137700857Y-56860134D01*
X137504488Y-56874179D01*
X137495499Y-56874500D01*
X128504501Y-56874500D01*
X128495512Y-56874179D01*
X128299142Y-56860134D01*
X128281347Y-56857575D01*
X128093395Y-56816688D01*
X128076146Y-56811624D01*
X127895912Y-56744400D01*
X127879560Y-56736932D01*
X127710732Y-56644745D01*
X127695608Y-56635025D01*
X127541619Y-56519751D01*
X127528033Y-56507978D01*
X127392021Y-56371966D01*
X127380248Y-56358380D01*
X127264974Y-56204391D01*
X127255254Y-56189267D01*
X127163067Y-56020439D01*
X127155599Y-56004087D01*
X127152569Y-55995964D01*
X127088374Y-55823850D01*
X127083311Y-55806604D01*
X127042424Y-55618652D01*
X127039865Y-55600856D01*
X127036141Y-55548791D01*
X127025821Y-55404487D01*
X127025500Y-55395499D01*
X127025500Y-54001402D01*
X127842000Y-54001402D01*
X127842000Y-54646000D01*
X128769297Y-54646000D01*
X128734075Y-54707007D01*
X128700000Y-54834174D01*
X128700000Y-54965826D01*
X128734075Y-55092993D01*
X128769297Y-55154000D01*
X127842000Y-55154000D01*
X127842000Y-55798597D01*
X127848505Y-55859093D01*
X127899555Y-55995964D01*
X127899555Y-55995965D01*
X127987095Y-56112904D01*
X128104034Y-56200444D01*
X128240906Y-56251494D01*
X128301402Y-56257999D01*
X128301415Y-56258000D01*
X128946000Y-56258000D01*
X128946000Y-55330702D01*
X129007007Y-55365925D01*
X129134174Y-55400000D01*
X129265826Y-55400000D01*
X129392993Y-55365925D01*
X129454000Y-55330702D01*
X129454000Y-56258000D01*
X130098585Y-56258000D01*
X130098597Y-56257999D01*
X130159093Y-56251494D01*
X130295964Y-56200444D01*
X130295965Y-56200444D01*
X130412904Y-56112904D01*
X130500444Y-55995965D01*
X130544618Y-55877530D01*
X130587165Y-55820694D01*
X130653685Y-55795883D01*
X130723059Y-55810974D01*
X130755372Y-55836222D01*
X130776427Y-55859093D01*
X130816762Y-55902908D01*
X130857312Y-55934469D01*
X130994424Y-56041189D01*
X131192426Y-56148342D01*
X131192427Y-56148342D01*
X131192428Y-56148343D01*
X131304227Y-56186723D01*
X131405365Y-56221444D01*
X131627431Y-56258500D01*
X131627435Y-56258500D01*
X131852565Y-56258500D01*
X131852569Y-56258500D01*
X132074635Y-56221444D01*
X132287574Y-56148342D01*
X132485576Y-56041189D01*
X132663240Y-55902906D01*
X132815722Y-55737268D01*
X132904518Y-55601354D01*
X132958520Y-55555268D01*
X133028868Y-55545692D01*
X133093225Y-55575669D01*
X133115480Y-55601353D01*
X133148607Y-55652058D01*
X133204275Y-55737265D01*
X133204279Y-55737270D01*
X133356762Y-55902908D01*
X133397312Y-55934469D01*
X133534424Y-56041189D01*
X133732426Y-56148342D01*
X133732427Y-56148342D01*
X133732428Y-56148343D01*
X133844227Y-56186723D01*
X133945365Y-56221444D01*
X134167431Y-56258500D01*
X134167435Y-56258500D01*
X134392565Y-56258500D01*
X134392569Y-56258500D01*
X134614635Y-56221444D01*
X134827574Y-56148342D01*
X135025576Y-56041189D01*
X135203240Y-55902906D01*
X135355722Y-55737268D01*
X135444518Y-55601354D01*
X135498520Y-55555268D01*
X135568868Y-55545692D01*
X135633225Y-55575669D01*
X135655480Y-55601353D01*
X135688607Y-55652058D01*
X135744275Y-55737265D01*
X135744279Y-55737270D01*
X135896762Y-55902908D01*
X135937312Y-55934469D01*
X136074424Y-56041189D01*
X136272426Y-56148342D01*
X136272427Y-56148342D01*
X136272428Y-56148343D01*
X136384227Y-56186723D01*
X136485365Y-56221444D01*
X136707431Y-56258500D01*
X136707435Y-56258500D01*
X136932565Y-56258500D01*
X136932569Y-56258500D01*
X137154635Y-56221444D01*
X137367574Y-56148342D01*
X137565576Y-56041189D01*
X137743240Y-55902906D01*
X137895722Y-55737268D01*
X138018860Y-55548791D01*
X138109296Y-55342616D01*
X138164564Y-55124368D01*
X138183156Y-54900000D01*
X138164564Y-54675632D01*
X138109296Y-54457384D01*
X138018860Y-54251209D01*
X138012140Y-54240924D01*
X137895724Y-54062734D01*
X137895720Y-54062729D01*
X137743237Y-53897091D01*
X137623679Y-53804035D01*
X137565576Y-53758811D01*
X137367574Y-53651658D01*
X137367572Y-53651657D01*
X137367571Y-53651656D01*
X137154639Y-53578557D01*
X137154630Y-53578555D01*
X137110476Y-53571187D01*
X136932569Y-53541500D01*
X136707431Y-53541500D01*
X136559211Y-53566233D01*
X136485369Y-53578555D01*
X136485360Y-53578557D01*
X136272428Y-53651656D01*
X136272426Y-53651658D01*
X136074426Y-53758810D01*
X136074424Y-53758811D01*
X135896762Y-53897091D01*
X135744279Y-54062729D01*
X135655483Y-54198643D01*
X135601479Y-54244731D01*
X135531131Y-54254306D01*
X135466774Y-54224329D01*
X135444517Y-54198643D01*
X135355720Y-54062729D01*
X135203237Y-53897091D01*
X135083679Y-53804035D01*
X135025576Y-53758811D01*
X134827574Y-53651658D01*
X134827572Y-53651657D01*
X134827571Y-53651656D01*
X134614639Y-53578557D01*
X134614630Y-53578555D01*
X134570476Y-53571187D01*
X134392569Y-53541500D01*
X134167431Y-53541500D01*
X134019211Y-53566233D01*
X133945369Y-53578555D01*
X133945360Y-53578557D01*
X133732428Y-53651656D01*
X133732426Y-53651658D01*
X133534426Y-53758810D01*
X133534424Y-53758811D01*
X133356762Y-53897091D01*
X133204279Y-54062729D01*
X133115483Y-54198643D01*
X133061479Y-54244731D01*
X132991131Y-54254306D01*
X132926774Y-54224329D01*
X132904517Y-54198643D01*
X132815720Y-54062729D01*
X132663237Y-53897091D01*
X132543679Y-53804035D01*
X132485576Y-53758811D01*
X132287574Y-53651658D01*
X132287572Y-53651657D01*
X132287571Y-53651656D01*
X132074639Y-53578557D01*
X132074630Y-53578555D01*
X132030476Y-53571187D01*
X131852569Y-53541500D01*
X131627431Y-53541500D01*
X131479211Y-53566233D01*
X131405369Y-53578555D01*
X131405360Y-53578557D01*
X131192428Y-53651656D01*
X131192426Y-53651658D01*
X130994426Y-53758810D01*
X130994424Y-53758811D01*
X130816759Y-53897094D01*
X130755374Y-53963775D01*
X130694521Y-54000346D01*
X130623557Y-53998211D01*
X130565012Y-53958049D01*
X130544618Y-53922470D01*
X130500443Y-53804033D01*
X130412904Y-53687095D01*
X130295965Y-53599555D01*
X130159093Y-53548505D01*
X130098597Y-53542000D01*
X129454000Y-53542000D01*
X129454000Y-54469297D01*
X129392993Y-54434075D01*
X129265826Y-54400000D01*
X129134174Y-54400000D01*
X129007007Y-54434075D01*
X128946000Y-54469297D01*
X128946000Y-53542000D01*
X128301402Y-53542000D01*
X128240906Y-53548505D01*
X128104035Y-53599555D01*
X128104034Y-53599555D01*
X127987095Y-53687095D01*
X127899555Y-53804034D01*
X127899555Y-53804035D01*
X127848505Y-53940906D01*
X127842000Y-54001402D01*
X127025500Y-54001402D01*
X127025500Y-45504500D01*
X127025821Y-45495512D01*
X127039865Y-45299143D01*
X127042422Y-45281354D01*
X127083312Y-45093388D01*
X127088372Y-45076153D01*
X127155602Y-44895904D01*
X127163063Y-44879568D01*
X127255257Y-44710727D01*
X127264970Y-44695613D01*
X127380254Y-44541611D01*
X127392014Y-44528040D01*
X127528040Y-44392014D01*
X127541611Y-44380254D01*
X127695613Y-44264970D01*
X127710727Y-44255257D01*
X127879568Y-44163063D01*
X127895904Y-44155602D01*
X128076153Y-44088372D01*
X128093388Y-44083312D01*
X128281354Y-44042422D01*
X128299138Y-44039865D01*
X128452732Y-44028880D01*
X128495513Y-44025821D01*
X128504501Y-44025500D01*
X128508285Y-44025500D01*
X137491715Y-44025500D01*
X137495499Y-44025500D01*
X137504487Y-44025821D01*
G37*
G04 #@! TD.AperFunction*
M02*
