G04 #@! TF.GenerationSoftware,KiCad,Pcbnew,8.0.8*
G04 #@! TF.CreationDate,2025-01-29T14:53:02+01:00*
G04 #@! TF.ProjectId,TS4231-BOB,54533432-3331-42d4-924f-422e6b696361,rev?*
G04 #@! TF.SameCoordinates,Original*
G04 #@! TF.FileFunction,Legend,Bot*
G04 #@! TF.FilePolarity,Positive*
%FSLAX46Y46*%
G04 Gerber Fmt 4.6, Leading zero omitted, Abs format (unit mm)*
G04 Created by KiCad (PCBNEW 8.0.8) date 2025-01-29 14:53:02*
%MOMM*%
%LPD*%
G01*
G04 APERTURE LIST*
%ADD10C,0.150000*%
%ADD11R,1.700000X1.700000*%
%ADD12O,1.700000X1.700000*%
G04 APERTURE END LIST*
D10*
X132204819Y-52488095D02*
X131204819Y-52488095D01*
X131204819Y-52488095D02*
X131204819Y-52726190D01*
X131204819Y-52726190D02*
X131252438Y-52869047D01*
X131252438Y-52869047D02*
X131347676Y-52964285D01*
X131347676Y-52964285D02*
X131442914Y-53011904D01*
X131442914Y-53011904D02*
X131633390Y-53059523D01*
X131633390Y-53059523D02*
X131776247Y-53059523D01*
X131776247Y-53059523D02*
X131966723Y-53011904D01*
X131966723Y-53011904D02*
X132061961Y-52964285D01*
X132061961Y-52964285D02*
X132157200Y-52869047D01*
X132157200Y-52869047D02*
X132204819Y-52726190D01*
X132204819Y-52726190D02*
X132204819Y-52488095D01*
X137073866Y-49000000D02*
X137073866Y-49761905D01*
X137454819Y-49380952D02*
X136692914Y-49380952D01*
X136454819Y-50142857D02*
X136454819Y-50761904D01*
X136454819Y-50761904D02*
X136835771Y-50428571D01*
X136835771Y-50428571D02*
X136835771Y-50571428D01*
X136835771Y-50571428D02*
X136883390Y-50666666D01*
X136883390Y-50666666D02*
X136931009Y-50714285D01*
X136931009Y-50714285D02*
X137026247Y-50761904D01*
X137026247Y-50761904D02*
X137264342Y-50761904D01*
X137264342Y-50761904D02*
X137359580Y-50714285D01*
X137359580Y-50714285D02*
X137407200Y-50666666D01*
X137407200Y-50666666D02*
X137454819Y-50571428D01*
X137454819Y-50571428D02*
X137454819Y-50285714D01*
X137454819Y-50285714D02*
X137407200Y-50190476D01*
X137407200Y-50190476D02*
X137359580Y-50142857D01*
X137359580Y-51190476D02*
X137407200Y-51238095D01*
X137407200Y-51238095D02*
X137454819Y-51190476D01*
X137454819Y-51190476D02*
X137407200Y-51142857D01*
X137407200Y-51142857D02*
X137359580Y-51190476D01*
X137359580Y-51190476D02*
X137454819Y-51190476D01*
X136454819Y-51571428D02*
X136454819Y-52190475D01*
X136454819Y-52190475D02*
X136835771Y-51857142D01*
X136835771Y-51857142D02*
X136835771Y-51999999D01*
X136835771Y-51999999D02*
X136883390Y-52095237D01*
X136883390Y-52095237D02*
X136931009Y-52142856D01*
X136931009Y-52142856D02*
X137026247Y-52190475D01*
X137026247Y-52190475D02*
X137264342Y-52190475D01*
X137264342Y-52190475D02*
X137359580Y-52142856D01*
X137359580Y-52142856D02*
X137407200Y-52095237D01*
X137407200Y-52095237D02*
X137454819Y-51999999D01*
X137454819Y-51999999D02*
X137454819Y-51714285D01*
X137454819Y-51714285D02*
X137407200Y-51619047D01*
X137407200Y-51619047D02*
X137359580Y-51571428D01*
X136454819Y-52476190D02*
X137454819Y-52809523D01*
X137454819Y-52809523D02*
X136454819Y-53142856D01*
X134181009Y-52535714D02*
X134181009Y-52869047D01*
X134704819Y-53011904D02*
X134704819Y-52535714D01*
X134704819Y-52535714D02*
X133704819Y-52535714D01*
X133704819Y-52535714D02*
X133704819Y-53011904D01*
X128752438Y-50988095D02*
X128704819Y-50892857D01*
X128704819Y-50892857D02*
X128704819Y-50750000D01*
X128704819Y-50750000D02*
X128752438Y-50607143D01*
X128752438Y-50607143D02*
X128847676Y-50511905D01*
X128847676Y-50511905D02*
X128942914Y-50464286D01*
X128942914Y-50464286D02*
X129133390Y-50416667D01*
X129133390Y-50416667D02*
X129276247Y-50416667D01*
X129276247Y-50416667D02*
X129466723Y-50464286D01*
X129466723Y-50464286D02*
X129561961Y-50511905D01*
X129561961Y-50511905D02*
X129657200Y-50607143D01*
X129657200Y-50607143D02*
X129704819Y-50750000D01*
X129704819Y-50750000D02*
X129704819Y-50845238D01*
X129704819Y-50845238D02*
X129657200Y-50988095D01*
X129657200Y-50988095D02*
X129609580Y-51035714D01*
X129609580Y-51035714D02*
X129276247Y-51035714D01*
X129276247Y-51035714D02*
X129276247Y-50845238D01*
X129704819Y-51464286D02*
X128704819Y-51464286D01*
X128704819Y-51464286D02*
X129704819Y-52035714D01*
X129704819Y-52035714D02*
X128704819Y-52035714D01*
X129704819Y-52511905D02*
X128704819Y-52511905D01*
X128704819Y-52511905D02*
X128704819Y-52750000D01*
X128704819Y-52750000D02*
X128752438Y-52892857D01*
X128752438Y-52892857D02*
X128847676Y-52988095D01*
X128847676Y-52988095D02*
X128942914Y-53035714D01*
X128942914Y-53035714D02*
X129133390Y-53083333D01*
X129133390Y-53083333D02*
X129276247Y-53083333D01*
X129276247Y-53083333D02*
X129466723Y-53035714D01*
X129466723Y-53035714D02*
X129561961Y-52988095D01*
X129561961Y-52988095D02*
X129657200Y-52892857D01*
X129657200Y-52892857D02*
X129704819Y-52750000D01*
X129704819Y-52750000D02*
X129704819Y-52511905D01*
%LPC*%
D11*
X129200000Y-54900000D03*
D12*
X131740000Y-54900000D03*
X134280000Y-54900000D03*
X136820000Y-54900000D03*
%LPD*%
M02*
