%TF.GenerationSoftware,KiCad,Pcbnew,8.0.8*%
%TF.CreationDate,2025-01-29T14:54:37+01:00*%
%TF.ProjectId,TS4231-BOB,54533432-3331-42d4-924f-422e6b696361,rev?*%
%TF.SameCoordinates,Original*%
%TF.FileFunction,Drillmap*%
%TF.FilePolarity,Positive*%
%FSLAX45Y45*%
G04 Gerber Fmt 4.5, Leading zero omitted, Abs format (unit mm)*
G04 Created by KiCad (PCBNEW 8.0.8) date 2025-01-29 14:54:37*
%MOMM*%
%LPD*%
G01*
G04 APERTURE LIST*
%ADD10C,0.050000*%
%ADD11C,0.200000*%
G04 APERTURE END LIST*
D10*
X13900000Y-4550000D02*
X13900000Y-5540000D01*
X13750000Y-5690000D02*
X12850000Y-5690000D01*
X12700000Y-5540000D02*
X12700000Y-4550000D01*
X12850000Y-4400000D02*
X13750000Y-4400000D01*
X13750000Y-4400000D02*
G75*
G02*
X13900000Y-4550000I0J-150000D01*
G01*
X12700000Y-4550000D02*
G75*
G02*
X12850000Y-4400000I150000J0D01*
G01*
X12850000Y-5690000D02*
G75*
G02*
X12700000Y-5540000I0J150000D01*
G01*
X13900000Y-5540000D02*
G75*
G02*
X13750000Y-5690000I-150000J0D01*
G01*
D11*
X12958277Y-6003984D02*
X12958277Y-5803984D01*
X12958277Y-5803984D02*
X13005896Y-5803984D01*
X13005896Y-5803984D02*
X13034467Y-5813508D01*
X13034467Y-5813508D02*
X13053515Y-5832555D01*
X13053515Y-5832555D02*
X13063039Y-5851603D01*
X13063039Y-5851603D02*
X13072562Y-5889698D01*
X13072562Y-5889698D02*
X13072562Y-5918269D01*
X13072562Y-5918269D02*
X13063039Y-5956365D01*
X13063039Y-5956365D02*
X13053515Y-5975412D01*
X13053515Y-5975412D02*
X13034467Y-5994460D01*
X13034467Y-5994460D02*
X13005896Y-6003984D01*
X13005896Y-6003984D02*
X12958277Y-6003984D01*
X13158277Y-6003984D02*
X13158277Y-5870650D01*
X13158277Y-5908746D02*
X13167801Y-5889698D01*
X13167801Y-5889698D02*
X13177324Y-5880174D01*
X13177324Y-5880174D02*
X13196372Y-5870650D01*
X13196372Y-5870650D02*
X13215420Y-5870650D01*
X13282086Y-6003984D02*
X13282086Y-5870650D01*
X13282086Y-5803984D02*
X13272562Y-5813508D01*
X13272562Y-5813508D02*
X13282086Y-5823031D01*
X13282086Y-5823031D02*
X13291610Y-5813508D01*
X13291610Y-5813508D02*
X13282086Y-5803984D01*
X13282086Y-5803984D02*
X13282086Y-5823031D01*
X13405896Y-6003984D02*
X13386848Y-5994460D01*
X13386848Y-5994460D02*
X13377324Y-5975412D01*
X13377324Y-5975412D02*
X13377324Y-5803984D01*
X13510658Y-6003984D02*
X13491610Y-5994460D01*
X13491610Y-5994460D02*
X13482086Y-5975412D01*
X13482086Y-5975412D02*
X13482086Y-5803984D01*
X13739229Y-6003984D02*
X13739229Y-5803984D01*
X13739229Y-5803984D02*
X13805896Y-5946841D01*
X13805896Y-5946841D02*
X13872562Y-5803984D01*
X13872562Y-5803984D02*
X13872562Y-6003984D01*
X14053515Y-6003984D02*
X14053515Y-5899222D01*
X14053515Y-5899222D02*
X14043991Y-5880174D01*
X14043991Y-5880174D02*
X14024943Y-5870650D01*
X14024943Y-5870650D02*
X13986848Y-5870650D01*
X13986848Y-5870650D02*
X13967801Y-5880174D01*
X14053515Y-5994460D02*
X14034467Y-6003984D01*
X14034467Y-6003984D02*
X13986848Y-6003984D01*
X13986848Y-6003984D02*
X13967801Y-5994460D01*
X13967801Y-5994460D02*
X13958277Y-5975412D01*
X13958277Y-5975412D02*
X13958277Y-5956365D01*
X13958277Y-5956365D02*
X13967801Y-5937317D01*
X13967801Y-5937317D02*
X13986848Y-5927793D01*
X13986848Y-5927793D02*
X14034467Y-5927793D01*
X14034467Y-5927793D02*
X14053515Y-5918269D01*
X14148753Y-5870650D02*
X14148753Y-6070650D01*
X14148753Y-5880174D02*
X14167801Y-5870650D01*
X14167801Y-5870650D02*
X14205896Y-5870650D01*
X14205896Y-5870650D02*
X14224943Y-5880174D01*
X14224943Y-5880174D02*
X14234467Y-5889698D01*
X14234467Y-5889698D02*
X14243991Y-5908746D01*
X14243991Y-5908746D02*
X14243991Y-5965888D01*
X14243991Y-5965888D02*
X14234467Y-5984936D01*
X14234467Y-5984936D02*
X14224943Y-5994460D01*
X14224943Y-5994460D02*
X14205896Y-6003984D01*
X14205896Y-6003984D02*
X14167801Y-6003984D01*
X14167801Y-6003984D02*
X14148753Y-5994460D01*
X14329705Y-5984936D02*
X14339229Y-5994460D01*
X14339229Y-5994460D02*
X14329705Y-6003984D01*
X14329705Y-6003984D02*
X14320182Y-5994460D01*
X14320182Y-5994460D02*
X14329705Y-5984936D01*
X14329705Y-5984936D02*
X14329705Y-6003984D01*
X14329705Y-5880174D02*
X14339229Y-5889698D01*
X14339229Y-5889698D02*
X14329705Y-5899222D01*
X14329705Y-5899222D02*
X14320182Y-5889698D01*
X14320182Y-5889698D02*
X14329705Y-5880174D01*
X14329705Y-5880174D02*
X14329705Y-5899222D01*
M02*
