G04 #@! TF.GenerationSoftware,KiCad,Pcbnew,8.0.8*
G04 #@! TF.CreationDate,2025-01-29T14:53:02+01:00*
G04 #@! TF.ProjectId,TS4231-BOB,54533432-3331-42d4-924f-422e6b696361,rev?*
G04 #@! TF.SameCoordinates,Original*
G04 #@! TF.FileFunction,Legend,Top*
G04 #@! TF.FilePolarity,Positive*
%FSLAX46Y46*%
G04 Gerber Fmt 4.6, Leading zero omitted, Abs format (unit mm)*
G04 Created by KiCad (PCBNEW 8.0.8) date 2025-01-29 14:53:02*
%MOMM*%
%LPD*%
G01*
G04 APERTURE LIST*
G04 Aperture macros list*
%AMRoundRect*
0 Rectangle with rounded corners*
0 $1 Rounding radius*
0 $2 $3 $4 $5 $6 $7 $8 $9 X,Y pos of 4 corners*
0 Add a 4 corners polygon primitive as box body*
4,1,4,$2,$3,$4,$5,$6,$7,$8,$9,$2,$3,0*
0 Add four circle primitives for the rounded corners*
1,1,$1+$1,$2,$3*
1,1,$1+$1,$4,$5*
1,1,$1+$1,$6,$7*
1,1,$1+$1,$8,$9*
0 Add four rect primitives between the rounded corners*
20,1,$1+$1,$2,$3,$4,$5,0*
20,1,$1+$1,$4,$5,$6,$7,0*
20,1,$1+$1,$6,$7,$8,$9,0*
20,1,$1+$1,$8,$9,$2,$3,0*%
G04 Aperture macros list end*
%ADD10C,0.150000*%
%ADD11C,0.120000*%
%ADD12C,0.100000*%
%ADD13RoundRect,0.225000X0.250000X-0.225000X0.250000X0.225000X-0.250000X0.225000X-0.250000X-0.225000X0*%
%ADD14R,1.400000X2.000000*%
%ADD15R,1.400000X1.200000*%
%ADD16R,1.700000X1.700000*%
%ADD17O,1.700000X1.700000*%
%ADD18RoundRect,0.200000X-0.200000X-0.275000X0.200000X-0.275000X0.200000X0.275000X-0.200000X0.275000X0*%
%ADD19RoundRect,0.225000X0.225000X0.250000X-0.225000X0.250000X-0.225000X-0.250000X0.225000X-0.250000X0*%
%ADD20C,0.400000*%
G04 APERTURE END LIST*
D10*
X136859580Y-50766666D02*
X136907200Y-50814285D01*
X136907200Y-50814285D02*
X136954819Y-50957142D01*
X136954819Y-50957142D02*
X136954819Y-51052380D01*
X136954819Y-51052380D02*
X136907200Y-51195237D01*
X136907200Y-51195237D02*
X136811961Y-51290475D01*
X136811961Y-51290475D02*
X136716723Y-51338094D01*
X136716723Y-51338094D02*
X136526247Y-51385713D01*
X136526247Y-51385713D02*
X136383390Y-51385713D01*
X136383390Y-51385713D02*
X136192914Y-51338094D01*
X136192914Y-51338094D02*
X136097676Y-51290475D01*
X136097676Y-51290475D02*
X136002438Y-51195237D01*
X136002438Y-51195237D02*
X135954819Y-51052380D01*
X135954819Y-51052380D02*
X135954819Y-50957142D01*
X135954819Y-50957142D02*
X136002438Y-50814285D01*
X136002438Y-50814285D02*
X136050057Y-50766666D01*
X136954819Y-49814285D02*
X136954819Y-50385713D01*
X136954819Y-50099999D02*
X135954819Y-50099999D01*
X135954819Y-50099999D02*
X136097676Y-50195237D01*
X136097676Y-50195237D02*
X136192914Y-50290475D01*
X136192914Y-50290475D02*
X136240533Y-50385713D01*
X132061905Y-46754819D02*
X132061905Y-45754819D01*
X132061905Y-45754819D02*
X132300000Y-45754819D01*
X132300000Y-45754819D02*
X132442857Y-45802438D01*
X132442857Y-45802438D02*
X132538095Y-45897676D01*
X132538095Y-45897676D02*
X132585714Y-45992914D01*
X132585714Y-45992914D02*
X132633333Y-46183390D01*
X132633333Y-46183390D02*
X132633333Y-46326247D01*
X132633333Y-46326247D02*
X132585714Y-46516723D01*
X132585714Y-46516723D02*
X132538095Y-46611961D01*
X132538095Y-46611961D02*
X132442857Y-46707200D01*
X132442857Y-46707200D02*
X132300000Y-46754819D01*
X132300000Y-46754819D02*
X132061905Y-46754819D01*
X133585714Y-46754819D02*
X133014286Y-46754819D01*
X133300000Y-46754819D02*
X133300000Y-45754819D01*
X133300000Y-45754819D02*
X133204762Y-45897676D01*
X133204762Y-45897676D02*
X133109524Y-45992914D01*
X133109524Y-45992914D02*
X133014286Y-46040533D01*
X129133333Y-53454819D02*
X128800000Y-52978628D01*
X128561905Y-53454819D02*
X128561905Y-52454819D01*
X128561905Y-52454819D02*
X128942857Y-52454819D01*
X128942857Y-52454819D02*
X129038095Y-52502438D01*
X129038095Y-52502438D02*
X129085714Y-52550057D01*
X129085714Y-52550057D02*
X129133333Y-52645295D01*
X129133333Y-52645295D02*
X129133333Y-52788152D01*
X129133333Y-52788152D02*
X129085714Y-52883390D01*
X129085714Y-52883390D02*
X129038095Y-52931009D01*
X129038095Y-52931009D02*
X128942857Y-52978628D01*
X128942857Y-52978628D02*
X128561905Y-52978628D01*
X130085714Y-53454819D02*
X129514286Y-53454819D01*
X129800000Y-53454819D02*
X129800000Y-52454819D01*
X129800000Y-52454819D02*
X129704762Y-52597676D01*
X129704762Y-52597676D02*
X129609524Y-52692914D01*
X129609524Y-52692914D02*
X129514286Y-52740533D01*
X129233333Y-48759580D02*
X129185714Y-48807200D01*
X129185714Y-48807200D02*
X129042857Y-48854819D01*
X129042857Y-48854819D02*
X128947619Y-48854819D01*
X128947619Y-48854819D02*
X128804762Y-48807200D01*
X128804762Y-48807200D02*
X128709524Y-48711961D01*
X128709524Y-48711961D02*
X128661905Y-48616723D01*
X128661905Y-48616723D02*
X128614286Y-48426247D01*
X128614286Y-48426247D02*
X128614286Y-48283390D01*
X128614286Y-48283390D02*
X128661905Y-48092914D01*
X128661905Y-48092914D02*
X128709524Y-47997676D01*
X128709524Y-47997676D02*
X128804762Y-47902438D01*
X128804762Y-47902438D02*
X128947619Y-47854819D01*
X128947619Y-47854819D02*
X129042857Y-47854819D01*
X129042857Y-47854819D02*
X129185714Y-47902438D01*
X129185714Y-47902438D02*
X129233333Y-47950057D01*
X129614286Y-47950057D02*
X129661905Y-47902438D01*
X129661905Y-47902438D02*
X129757143Y-47854819D01*
X129757143Y-47854819D02*
X129995238Y-47854819D01*
X129995238Y-47854819D02*
X130090476Y-47902438D01*
X130090476Y-47902438D02*
X130138095Y-47950057D01*
X130138095Y-47950057D02*
X130185714Y-48045295D01*
X130185714Y-48045295D02*
X130185714Y-48140533D01*
X130185714Y-48140533D02*
X130138095Y-48283390D01*
X130138095Y-48283390D02*
X129566667Y-48854819D01*
X129566667Y-48854819D02*
X130185714Y-48854819D01*
X131938095Y-51154819D02*
X131938095Y-51964342D01*
X131938095Y-51964342D02*
X131985714Y-52059580D01*
X131985714Y-52059580D02*
X132033333Y-52107200D01*
X132033333Y-52107200D02*
X132128571Y-52154819D01*
X132128571Y-52154819D02*
X132319047Y-52154819D01*
X132319047Y-52154819D02*
X132414285Y-52107200D01*
X132414285Y-52107200D02*
X132461904Y-52059580D01*
X132461904Y-52059580D02*
X132509523Y-51964342D01*
X132509523Y-51964342D02*
X132509523Y-51154819D01*
X133509523Y-52154819D02*
X132938095Y-52154819D01*
X133223809Y-52154819D02*
X133223809Y-51154819D01*
X133223809Y-51154819D02*
X133128571Y-51297676D01*
X133128571Y-51297676D02*
X133033333Y-51392914D01*
X133033333Y-51392914D02*
X132938095Y-51440533D01*
D11*
X134390000Y-50540580D02*
X134390000Y-50259420D01*
X135410000Y-50540580D02*
X135410000Y-50259420D01*
X130600000Y-44300000D02*
X135000000Y-44300000D01*
X130600000Y-48300000D02*
X130600000Y-44300000D01*
X135000000Y-44300000D02*
X135000000Y-48300000D01*
X135000000Y-48300000D02*
X130600000Y-48300000D01*
X135700000Y-44600000D02*
G75*
G02*
X135300000Y-44600000I-200000J0D01*
G01*
X135300000Y-44600000D02*
G75*
G02*
X135700000Y-44600000I200000J0D01*
G01*
X127870000Y-56230000D02*
X127870000Y-54900000D01*
X129200000Y-56230000D02*
X127870000Y-56230000D01*
X130470000Y-53570000D02*
X138150000Y-53570000D01*
X130470000Y-56230000D02*
X130470000Y-53570000D01*
X130470000Y-56230000D02*
X138150000Y-56230000D01*
X138150000Y-56230000D02*
X138150000Y-53570000D01*
X129562742Y-50877500D02*
X130037258Y-50877500D01*
X129562742Y-51922500D02*
X130037258Y-51922500D01*
X129940580Y-49290000D02*
X129659420Y-49290000D01*
X129940580Y-50310000D02*
X129659420Y-50310000D01*
D12*
X131800000Y-49300000D02*
X133400000Y-49300000D01*
X131800000Y-50900000D02*
X131800000Y-49300000D01*
X133400000Y-49300000D02*
X133400000Y-50900000D01*
X133400000Y-50900000D02*
X131800000Y-50900000D01*
D11*
X131600000Y-49500000D02*
G75*
G02*
X131400000Y-49500000I-100000J0D01*
G01*
X131400000Y-49500000D02*
G75*
G02*
X131600000Y-49500000I100000J0D01*
G01*
%LPC*%
D13*
X134900000Y-51175000D03*
X134900000Y-49625000D03*
D14*
X135900000Y-46300000D03*
D15*
X129800000Y-46300000D03*
D16*
X129200000Y-54900000D03*
D17*
X131740000Y-54900000D03*
X134280000Y-54900000D03*
X136820000Y-54900000D03*
D18*
X128975000Y-51400000D03*
X130625000Y-51400000D03*
D19*
X130575000Y-49800000D03*
X129025000Y-49800000D03*
D20*
X132100000Y-49600000D03*
X132600000Y-49600000D03*
X133100000Y-49600000D03*
X132100000Y-50100000D03*
X132600000Y-50100000D03*
X133100000Y-50100000D03*
X132100000Y-50600000D03*
X132600000Y-50600000D03*
X133100000Y-50600000D03*
%LPD*%
M02*
