G04 #@! TF.GenerationSoftware,KiCad,Pcbnew,8.0.8*
G04 #@! TF.CreationDate,2025-01-29T14:53:02+01:00*
G04 #@! TF.ProjectId,TS4231-BOB,54533432-3331-42d4-924f-422e6b696361,rev?*
G04 #@! TF.SameCoordinates,Original*
G04 #@! TF.FileFunction,Copper,L1,Top*
G04 #@! TF.FilePolarity,Positive*
%FSLAX46Y46*%
G04 Gerber Fmt 4.6, Leading zero omitted, Abs format (unit mm)*
G04 Created by KiCad (PCBNEW 8.0.8) date 2025-01-29 14:53:02*
%MOMM*%
%LPD*%
G01*
G04 APERTURE LIST*
G04 Aperture macros list*
%AMRoundRect*
0 Rectangle with rounded corners*
0 $1 Rounding radius*
0 $2 $3 $4 $5 $6 $7 $8 $9 X,Y pos of 4 corners*
0 Add a 4 corners polygon primitive as box body*
4,1,4,$2,$3,$4,$5,$6,$7,$8,$9,$2,$3,0*
0 Add four circle primitives for the rounded corners*
1,1,$1+$1,$2,$3*
1,1,$1+$1,$4,$5*
1,1,$1+$1,$6,$7*
1,1,$1+$1,$8,$9*
0 Add four rect primitives between the rounded corners*
20,1,$1+$1,$2,$3,$4,$5,0*
20,1,$1+$1,$4,$5,$6,$7,0*
20,1,$1+$1,$6,$7,$8,$9,0*
20,1,$1+$1,$8,$9,$2,$3,0*%
G04 Aperture macros list end*
G04 #@! TA.AperFunction,SMDPad,CuDef*
%ADD10RoundRect,0.225000X0.250000X-0.225000X0.250000X0.225000X-0.250000X0.225000X-0.250000X-0.225000X0*%
G04 #@! TD*
G04 #@! TA.AperFunction,SMDPad,CuDef*
%ADD11R,1.400000X2.000000*%
G04 #@! TD*
G04 #@! TA.AperFunction,SMDPad,CuDef*
%ADD12R,1.400000X1.200000*%
G04 #@! TD*
G04 #@! TA.AperFunction,ComponentPad*
%ADD13R,1.700000X1.700000*%
G04 #@! TD*
G04 #@! TA.AperFunction,ComponentPad*
%ADD14O,1.700000X1.700000*%
G04 #@! TD*
G04 #@! TA.AperFunction,SMDPad,CuDef*
%ADD15RoundRect,0.200000X-0.200000X-0.275000X0.200000X-0.275000X0.200000X0.275000X-0.200000X0.275000X0*%
G04 #@! TD*
G04 #@! TA.AperFunction,SMDPad,CuDef*
%ADD16RoundRect,0.225000X0.225000X0.250000X-0.225000X0.250000X-0.225000X-0.250000X0.225000X-0.250000X0*%
G04 #@! TD*
G04 #@! TA.AperFunction,SMDPad,CuDef*
%ADD17C,0.400000*%
G04 #@! TD*
G04 #@! TA.AperFunction,ViaPad*
%ADD18C,0.800000*%
G04 #@! TD*
G04 #@! TA.AperFunction,Conductor*
%ADD19C,0.200000*%
G04 #@! TD*
G04 #@! TA.AperFunction,Conductor*
%ADD20C,0.250000*%
G04 #@! TD*
G04 APERTURE END LIST*
D10*
X134900000Y-51175000D03*
X134900000Y-49625000D03*
D11*
X135900000Y-46300000D03*
D12*
X129800000Y-46300000D03*
D13*
X129200000Y-54900000D03*
D14*
X131740000Y-54900000D03*
X134280000Y-54900000D03*
X136820000Y-54900000D03*
D15*
X128975000Y-51400000D03*
X130625000Y-51400000D03*
D16*
X130575000Y-49800000D03*
X129025000Y-49800000D03*
D17*
X132100000Y-49600000D03*
X132600000Y-49600000D03*
X133100000Y-49600000D03*
X132100000Y-50100000D03*
X132600000Y-50100000D03*
X133100000Y-50100000D03*
X132100000Y-50600000D03*
X132600000Y-50600000D03*
X133100000Y-50600000D03*
D18*
X128400000Y-47500000D03*
X130600000Y-52900000D03*
X135800000Y-52400000D03*
X131400000Y-46300000D03*
X137800000Y-47700000D03*
X134000000Y-45200000D03*
X136199989Y-49600011D03*
X132800000Y-47500000D03*
X129833069Y-50750919D03*
X138000000Y-51300000D03*
D19*
X134425000Y-50100000D02*
X134900000Y-49625000D01*
D20*
X136199978Y-49600000D02*
X136199989Y-49600011D01*
X134780000Y-49600000D02*
X136199978Y-49600000D01*
D19*
X129183988Y-51400000D02*
X129833069Y-50750919D01*
X132600000Y-50100000D02*
X133100000Y-50100000D01*
X128975000Y-51400000D02*
X129183988Y-51400000D01*
D20*
X128975000Y-51400000D02*
X129200000Y-51625000D01*
D19*
X133100000Y-50100000D02*
X134425000Y-50100000D01*
X129025000Y-49942850D02*
X129025000Y-49800000D01*
D20*
X129200000Y-51625000D02*
X129200000Y-54900000D01*
D19*
X129833069Y-50750919D02*
X129025000Y-49942850D01*
D20*
X134900000Y-51175000D02*
X134900000Y-52680000D01*
X134900000Y-52680000D02*
X136820000Y-54600000D01*
D19*
X134325000Y-50600000D02*
X134900000Y-51175000D01*
X133100000Y-50600000D02*
X134325000Y-50600000D01*
X130585000Y-49600000D02*
X130500000Y-49515000D01*
X132100000Y-49600000D02*
X130775000Y-49600000D01*
X130775000Y-49600000D02*
X130575000Y-49800000D01*
X133100000Y-48500000D02*
X135300000Y-46300000D01*
X133100000Y-49600000D02*
X133100000Y-48500000D01*
X135300000Y-46300000D02*
X135900000Y-46300000D01*
X132600000Y-49600000D02*
X132600000Y-48700000D01*
X130200000Y-46300000D02*
X129800000Y-46300000D01*
X132600000Y-48700000D02*
X130200000Y-46300000D01*
X132600000Y-50600000D02*
X132600000Y-50900000D01*
X132600000Y-50900000D02*
X132600000Y-52100000D01*
X134280000Y-53780000D02*
X134280000Y-54600000D01*
X132600000Y-52100000D02*
X134280000Y-53780000D01*
X131740000Y-52500000D02*
X131740000Y-54900000D01*
X132100000Y-50600000D02*
X132100000Y-52140000D01*
X132100000Y-52140000D02*
X131740000Y-52500000D01*
X131817158Y-50100000D02*
X130625000Y-51292158D01*
X130625000Y-51292158D02*
X130625000Y-51400000D01*
X132100000Y-50100000D02*
X131817158Y-50100000D01*
G04 #@! TA.AperFunction,Conductor*
G36*
X137504487Y-44025821D02*
G01*
X137556328Y-44029528D01*
X137700859Y-44039865D01*
X137718647Y-44042423D01*
X137906607Y-44083312D01*
X137923850Y-44088374D01*
X138104090Y-44155600D01*
X138120439Y-44163067D01*
X138289267Y-44255254D01*
X138304391Y-44264974D01*
X138458380Y-44380248D01*
X138471966Y-44392021D01*
X138607978Y-44528033D01*
X138619751Y-44541619D01*
X138735025Y-44695608D01*
X138744745Y-44710732D01*
X138836932Y-44879560D01*
X138844400Y-44895912D01*
X138911624Y-45076146D01*
X138916688Y-45093395D01*
X138957575Y-45281347D01*
X138960134Y-45299142D01*
X138974179Y-45495511D01*
X138974500Y-45504500D01*
X138974500Y-55395499D01*
X138974179Y-55404488D01*
X138960134Y-55600857D01*
X138957575Y-55618652D01*
X138916688Y-55806604D01*
X138911624Y-55823853D01*
X138844400Y-56004087D01*
X138836932Y-56020439D01*
X138744745Y-56189267D01*
X138735025Y-56204391D01*
X138619751Y-56358380D01*
X138607978Y-56371966D01*
X138471966Y-56507978D01*
X138458380Y-56519751D01*
X138304391Y-56635025D01*
X138289267Y-56644745D01*
X138120439Y-56736932D01*
X138104087Y-56744400D01*
X137923853Y-56811624D01*
X137906604Y-56816688D01*
X137718652Y-56857575D01*
X137700857Y-56860134D01*
X137504488Y-56874179D01*
X137495499Y-56874500D01*
X128504501Y-56874500D01*
X128495512Y-56874179D01*
X128299142Y-56860134D01*
X128281347Y-56857575D01*
X128093395Y-56816688D01*
X128076146Y-56811624D01*
X127895912Y-56744400D01*
X127879560Y-56736932D01*
X127710732Y-56644745D01*
X127695608Y-56635025D01*
X127541619Y-56519751D01*
X127528033Y-56507978D01*
X127392021Y-56371966D01*
X127380248Y-56358380D01*
X127264974Y-56204391D01*
X127255254Y-56189267D01*
X127163067Y-56020439D01*
X127155599Y-56004087D01*
X127152569Y-55995964D01*
X127088374Y-55823850D01*
X127083311Y-55806604D01*
X127042424Y-55618652D01*
X127039865Y-55600856D01*
X127036141Y-55548791D01*
X127025821Y-55404487D01*
X127025500Y-55395499D01*
X127025500Y-54001402D01*
X127842000Y-54001402D01*
X127842000Y-54646000D01*
X128769297Y-54646000D01*
X128734075Y-54707007D01*
X128700000Y-54834174D01*
X128700000Y-54965826D01*
X128734075Y-55092993D01*
X128769297Y-55154000D01*
X127842000Y-55154000D01*
X127842000Y-55798597D01*
X127848505Y-55859093D01*
X127899555Y-55995964D01*
X127899555Y-55995965D01*
X127987095Y-56112904D01*
X128104034Y-56200444D01*
X128240906Y-56251494D01*
X128301402Y-56257999D01*
X128301415Y-56258000D01*
X128946000Y-56258000D01*
X128946000Y-55330702D01*
X129007007Y-55365925D01*
X129134174Y-55400000D01*
X129265826Y-55400000D01*
X129392993Y-55365925D01*
X129454000Y-55330702D01*
X129454000Y-56258000D01*
X130098585Y-56258000D01*
X130098597Y-56257999D01*
X130159093Y-56251494D01*
X130295964Y-56200444D01*
X130295965Y-56200444D01*
X130412904Y-56112904D01*
X130500444Y-55995965D01*
X130544618Y-55877530D01*
X130587165Y-55820694D01*
X130653685Y-55795883D01*
X130723059Y-55810974D01*
X130755372Y-55836222D01*
X130776427Y-55859093D01*
X130816762Y-55902908D01*
X130857312Y-55934469D01*
X130994424Y-56041189D01*
X131192426Y-56148342D01*
X131192427Y-56148342D01*
X131192428Y-56148343D01*
X131304227Y-56186723D01*
X131405365Y-56221444D01*
X131627431Y-56258500D01*
X131627435Y-56258500D01*
X131852565Y-56258500D01*
X131852569Y-56258500D01*
X132074635Y-56221444D01*
X132287574Y-56148342D01*
X132485576Y-56041189D01*
X132663240Y-55902906D01*
X132815722Y-55737268D01*
X132904518Y-55601354D01*
X132958520Y-55555268D01*
X133028868Y-55545692D01*
X133093225Y-55575669D01*
X133115480Y-55601353D01*
X133148607Y-55652058D01*
X133204275Y-55737265D01*
X133204279Y-55737270D01*
X133356762Y-55902908D01*
X133397312Y-55934469D01*
X133534424Y-56041189D01*
X133732426Y-56148342D01*
X133732427Y-56148342D01*
X133732428Y-56148343D01*
X133844227Y-56186723D01*
X133945365Y-56221444D01*
X134167431Y-56258500D01*
X134167435Y-56258500D01*
X134392565Y-56258500D01*
X134392569Y-56258500D01*
X134614635Y-56221444D01*
X134827574Y-56148342D01*
X135025576Y-56041189D01*
X135203240Y-55902906D01*
X135355722Y-55737268D01*
X135444518Y-55601354D01*
X135498520Y-55555268D01*
X135568868Y-55545692D01*
X135633225Y-55575669D01*
X135655480Y-55601353D01*
X135688607Y-55652058D01*
X135744275Y-55737265D01*
X135744279Y-55737270D01*
X135896762Y-55902908D01*
X135937312Y-55934469D01*
X136074424Y-56041189D01*
X136272426Y-56148342D01*
X136272427Y-56148342D01*
X136272428Y-56148343D01*
X136384227Y-56186723D01*
X136485365Y-56221444D01*
X136707431Y-56258500D01*
X136707435Y-56258500D01*
X136932565Y-56258500D01*
X136932569Y-56258500D01*
X137154635Y-56221444D01*
X137367574Y-56148342D01*
X137565576Y-56041189D01*
X137743240Y-55902906D01*
X137895722Y-55737268D01*
X138018860Y-55548791D01*
X138109296Y-55342616D01*
X138164564Y-55124368D01*
X138183156Y-54900000D01*
X138164564Y-54675632D01*
X138109296Y-54457384D01*
X138018860Y-54251209D01*
X138012140Y-54240924D01*
X137895724Y-54062734D01*
X137895720Y-54062729D01*
X137743237Y-53897091D01*
X137623679Y-53804035D01*
X137565576Y-53758811D01*
X137367574Y-53651658D01*
X137367572Y-53651657D01*
X137367571Y-53651656D01*
X137154639Y-53578557D01*
X137154630Y-53578555D01*
X137110476Y-53571187D01*
X136932569Y-53541500D01*
X136709594Y-53541500D01*
X136641473Y-53521498D01*
X136620499Y-53504595D01*
X135570405Y-52454501D01*
X135536379Y-52392189D01*
X135533500Y-52365406D01*
X135533500Y-52095584D01*
X135553502Y-52027463D01*
X135593352Y-51988344D01*
X135608040Y-51979285D01*
X135729285Y-51858040D01*
X135819302Y-51712101D01*
X135873236Y-51549336D01*
X135876035Y-51521936D01*
X135883500Y-51448880D01*
X135883500Y-50901119D01*
X135873236Y-50800666D01*
X135873236Y-50800664D01*
X135819302Y-50637899D01*
X135729285Y-50491960D01*
X135726070Y-50488745D01*
X135692043Y-50426438D01*
X135697104Y-50355622D01*
X135726072Y-50310546D01*
X135728890Y-50307727D01*
X135818847Y-50161884D01*
X135872742Y-49999241D01*
X135872744Y-49999229D01*
X135882999Y-49898852D01*
X135883000Y-49898852D01*
X135883000Y-49879000D01*
X135026000Y-49879000D01*
X134957879Y-49858998D01*
X134911386Y-49805342D01*
X134900000Y-49753000D01*
X134900000Y-49625000D01*
X134772000Y-49625000D01*
X134703879Y-49604998D01*
X134657386Y-49551342D01*
X134646000Y-49499000D01*
X134646000Y-49371000D01*
X135154000Y-49371000D01*
X135883000Y-49371000D01*
X135883000Y-49351147D01*
X135872744Y-49250770D01*
X135872742Y-49250758D01*
X135818847Y-49088115D01*
X135728890Y-48942271D01*
X135728885Y-48942265D01*
X135607734Y-48821114D01*
X135607728Y-48821109D01*
X135461884Y-48731152D01*
X135299241Y-48677257D01*
X135299229Y-48677255D01*
X135198852Y-48667000D01*
X135154000Y-48667000D01*
X135154000Y-49371000D01*
X134646000Y-49371000D01*
X134646000Y-48667000D01*
X134601147Y-48667000D01*
X134500770Y-48677255D01*
X134500758Y-48677257D01*
X134338115Y-48731152D01*
X134192271Y-48821109D01*
X134192265Y-48821114D01*
X134071114Y-48942265D01*
X134071109Y-48942271D01*
X133981152Y-49088115D01*
X133954104Y-49169742D01*
X133913690Y-49228114D01*
X133848134Y-49255369D01*
X133778249Y-49242856D01*
X133726223Y-49194546D01*
X133708500Y-49130109D01*
X133708500Y-48804238D01*
X133728502Y-48736117D01*
X133745400Y-48715147D01*
X134736976Y-47723571D01*
X134799286Y-47689548D01*
X134870101Y-47694612D01*
X134901578Y-47711800D01*
X134953501Y-47750668D01*
X134953796Y-47750889D01*
X135012875Y-47772924D01*
X135090795Y-47801988D01*
X135090803Y-47801990D01*
X135151350Y-47808499D01*
X135151355Y-47808499D01*
X135151362Y-47808500D01*
X135151368Y-47808500D01*
X136648632Y-47808500D01*
X136648638Y-47808500D01*
X136648645Y-47808499D01*
X136648649Y-47808499D01*
X136709196Y-47801990D01*
X136709199Y-47801989D01*
X136709201Y-47801989D01*
X136846204Y-47750889D01*
X136963261Y-47663261D01*
X137050889Y-47546204D01*
X137101989Y-47409201D01*
X137102065Y-47408500D01*
X137108499Y-47348649D01*
X137108500Y-47348632D01*
X137108500Y-45251367D01*
X137108499Y-45251350D01*
X137101990Y-45190803D01*
X137101988Y-45190795D01*
X137050889Y-45053797D01*
X137050887Y-45053792D01*
X136963261Y-44936738D01*
X136846207Y-44849112D01*
X136846202Y-44849110D01*
X136709204Y-44798011D01*
X136709196Y-44798009D01*
X136648649Y-44791500D01*
X136648638Y-44791500D01*
X135151362Y-44791500D01*
X135151350Y-44791500D01*
X135090803Y-44798009D01*
X135090795Y-44798011D01*
X134953797Y-44849110D01*
X134953792Y-44849112D01*
X134836738Y-44936738D01*
X134749112Y-45053792D01*
X134749110Y-45053797D01*
X134698011Y-45190795D01*
X134698009Y-45190803D01*
X134691500Y-45251350D01*
X134691500Y-45995761D01*
X134671498Y-46063882D01*
X134654595Y-46084856D01*
X132839095Y-47900356D01*
X132776783Y-47934382D01*
X132705968Y-47929317D01*
X132660905Y-47900356D01*
X131045405Y-46284856D01*
X131011379Y-46222544D01*
X131008500Y-46195761D01*
X131008500Y-45651367D01*
X131008499Y-45651350D01*
X131001990Y-45590803D01*
X131001988Y-45590795D01*
X130950889Y-45453797D01*
X130950887Y-45453792D01*
X130863261Y-45336738D01*
X130746207Y-45249112D01*
X130746202Y-45249110D01*
X130609204Y-45198011D01*
X130609196Y-45198009D01*
X130548649Y-45191500D01*
X130548638Y-45191500D01*
X129051362Y-45191500D01*
X129051350Y-45191500D01*
X128990803Y-45198009D01*
X128990795Y-45198011D01*
X128853797Y-45249110D01*
X128853792Y-45249112D01*
X128736738Y-45336738D01*
X128649112Y-45453792D01*
X128649110Y-45453797D01*
X128598011Y-45590795D01*
X128598009Y-45590803D01*
X128591500Y-45651350D01*
X128591500Y-46948649D01*
X128598009Y-47009196D01*
X128598011Y-47009204D01*
X128649110Y-47146202D01*
X128649112Y-47146207D01*
X128736738Y-47263261D01*
X128853792Y-47350887D01*
X128853794Y-47350888D01*
X128853796Y-47350889D01*
X128912875Y-47372924D01*
X128990795Y-47401988D01*
X128990803Y-47401990D01*
X129051350Y-47408499D01*
X129051355Y-47408499D01*
X129051362Y-47408500D01*
X130395761Y-47408500D01*
X130463882Y-47428502D01*
X130484856Y-47445405D01*
X131807946Y-48768495D01*
X131841972Y-48830807D01*
X131836907Y-48901622D01*
X131794360Y-48958458D01*
X131777408Y-48969156D01*
X131774439Y-48970715D01*
X131762336Y-48977067D01*
X131703780Y-48991500D01*
X131327471Y-48991500D01*
X131261324Y-48972741D01*
X131258041Y-48970716D01*
X131258040Y-48970715D01*
X131112101Y-48880698D01*
X130949336Y-48826764D01*
X130949333Y-48826763D01*
X130848880Y-48816500D01*
X130848872Y-48816500D01*
X130301128Y-48816500D01*
X130301120Y-48816500D01*
X130200666Y-48826763D01*
X130037899Y-48880698D01*
X129891959Y-48970715D01*
X129891953Y-48970720D01*
X129888742Y-48973932D01*
X129826430Y-49007958D01*
X129755615Y-49002893D01*
X129710552Y-48973932D01*
X129707734Y-48971114D01*
X129707728Y-48971109D01*
X129561884Y-48881152D01*
X129399241Y-48827257D01*
X129399229Y-48827255D01*
X129298852Y-48817000D01*
X129279000Y-48817000D01*
X129279000Y-50812809D01*
X129258998Y-50880930D01*
X129242095Y-50901904D01*
X129229000Y-50914999D01*
X129229000Y-52382999D01*
X129232222Y-52382999D01*
X129303553Y-52376518D01*
X129467706Y-52325366D01*
X129614840Y-52236421D01*
X129614850Y-52236413D01*
X129710551Y-52140713D01*
X129772863Y-52106687D01*
X129843678Y-52111752D01*
X129888741Y-52140713D01*
X129984839Y-52236811D01*
X129984844Y-52236815D01*
X129984845Y-52236816D01*
X130132087Y-52325827D01*
X130296351Y-52377013D01*
X130367735Y-52383500D01*
X130882264Y-52383499D01*
X130953649Y-52377013D01*
X130968016Y-52372535D01*
X131039002Y-52371366D01*
X131099352Y-52408761D01*
X131129905Y-52472847D01*
X131131500Y-52492831D01*
X131131500Y-53609549D01*
X131111498Y-53677670D01*
X131065470Y-53720362D01*
X130994430Y-53758807D01*
X130994424Y-53758811D01*
X130816759Y-53897094D01*
X130755374Y-53963775D01*
X130694521Y-54000346D01*
X130623557Y-53998211D01*
X130565012Y-53958049D01*
X130544618Y-53922470D01*
X130500443Y-53804033D01*
X130412904Y-53687095D01*
X130295965Y-53599555D01*
X130159093Y-53548505D01*
X130098597Y-53542000D01*
X129454000Y-53542000D01*
X129454000Y-54469297D01*
X129392993Y-54434075D01*
X129265826Y-54400000D01*
X129134174Y-54400000D01*
X129007007Y-54434075D01*
X128946000Y-54469297D01*
X128946000Y-53542000D01*
X128301402Y-53542000D01*
X128240906Y-53548505D01*
X128104035Y-53599555D01*
X128104034Y-53599555D01*
X127987095Y-53687095D01*
X127899555Y-53804034D01*
X127899555Y-53804035D01*
X127848505Y-53940906D01*
X127842000Y-54001402D01*
X127025500Y-54001402D01*
X127025500Y-51732221D01*
X128067001Y-51732221D01*
X128073481Y-51803553D01*
X128124633Y-51967706D01*
X128213578Y-52114840D01*
X128213586Y-52114850D01*
X128335149Y-52236413D01*
X128335159Y-52236421D01*
X128482293Y-52325366D01*
X128646446Y-52376518D01*
X128717781Y-52382999D01*
X128720999Y-52382999D01*
X128721000Y-52382998D01*
X128721000Y-51654000D01*
X128067001Y-51654000D01*
X128067001Y-51732221D01*
X127025500Y-51732221D01*
X127025500Y-50098852D01*
X128067000Y-50098852D01*
X128077255Y-50199229D01*
X128077257Y-50199241D01*
X128131152Y-50361884D01*
X128221109Y-50507728D01*
X128225662Y-50513486D01*
X128223363Y-50515303D01*
X128250989Y-50565895D01*
X128245924Y-50636710D01*
X128216963Y-50681773D01*
X128213586Y-50685149D01*
X128213578Y-50685159D01*
X128124633Y-50832293D01*
X128073481Y-50996446D01*
X128073481Y-50996447D01*
X128067000Y-51067777D01*
X128067000Y-51146000D01*
X128721000Y-51146000D01*
X128721000Y-50387191D01*
X128741002Y-50319070D01*
X128757905Y-50298096D01*
X128771000Y-50285001D01*
X128771000Y-50054000D01*
X128067000Y-50054000D01*
X128067000Y-50098852D01*
X127025500Y-50098852D01*
X127025500Y-49501147D01*
X128067000Y-49501147D01*
X128067000Y-49546000D01*
X128771000Y-49546000D01*
X128771000Y-48817000D01*
X128751147Y-48817000D01*
X128650770Y-48827255D01*
X128650758Y-48827257D01*
X128488115Y-48881152D01*
X128342271Y-48971109D01*
X128342265Y-48971114D01*
X128221114Y-49092265D01*
X128221109Y-49092271D01*
X128131152Y-49238115D01*
X128077257Y-49400758D01*
X128077255Y-49400770D01*
X128067000Y-49501147D01*
X127025500Y-49501147D01*
X127025500Y-45504500D01*
X127025821Y-45495512D01*
X127028804Y-45453797D01*
X127039865Y-45299138D01*
X127042422Y-45281354D01*
X127083312Y-45093388D01*
X127088372Y-45076153D01*
X127155602Y-44895904D01*
X127163063Y-44879568D01*
X127255257Y-44710727D01*
X127264970Y-44695613D01*
X127380254Y-44541611D01*
X127392014Y-44528040D01*
X127528040Y-44392014D01*
X127541611Y-44380254D01*
X127695613Y-44264970D01*
X127710727Y-44255257D01*
X127879568Y-44163063D01*
X127895904Y-44155602D01*
X128076153Y-44088372D01*
X128093388Y-44083312D01*
X128281354Y-44042422D01*
X128299138Y-44039865D01*
X128452732Y-44028880D01*
X128495513Y-44025821D01*
X128504501Y-44025500D01*
X128508285Y-44025500D01*
X137491715Y-44025500D01*
X137495499Y-44025500D01*
X137504487Y-44025821D01*
G37*
G04 #@! TD.AperFunction*
M02*
